<?xml version="1.0" encoding="utf-8"?>
<!-- Generator: Adobe Illustrator 17.0.0, SVG Export Plug-In . SVG Version: 6.00 Build 0)  -->
<!DOCTYPE svg PUBLIC "-//W3C//DTD SVG 1.1//EN" "http://www.w3.org/Graphics/SVG/1.1/DTD/svg11.dtd">
<svg version="1.1" id="Layer_1" xmlns="http://www.w3.org/2000/svg" xmlns:xlink="http://www.w3.org/1999/xlink" x="0px" y="0px"
	 width="411.062px" height="379.778px" viewBox="0 0 411.062 379.778" enable-background="new 0 0 411.062 379.778"
	 xml:space="preserve">
<line fill="none" stroke="#BDF271" stroke-width="10" x1="280.045" y1="229.286" x2="305.544" y2="230.786"/>
<line fill="none" stroke="#BDF271" stroke-width="10" x1="283.045" y1="272.784" x2="314.543" y2="283.283"/>
<path fill="none" stroke="#BDF271" stroke-width="10" d="M52.056,325.281c0,0,14.998,29.999,40.497,25.499
	s28.499-34.499,62.997-25.499c34.498,8.999,49.498,23.999,83.996,19.499c34.498-4.5,49.497-22.499,49.497-22.499"/>
<path fill="none" stroke="#BDF271" stroke-width="10" d="M254.04,96.121c0,0-12-63,32-84c43.899-20.952,65,11,65,11"/>
<path fill="none" stroke="#BDF271" stroke-width="10" d="M253.04,104.121c0,0-39.55-65.963-80-49c-31,13-28,44-28,44"/>
<path fill="none" stroke="#BDF271" stroke-width="10" d="M261.04,115.121c0,0-56-37-94,3c-26.317,27.702-6,60-6,60"/>
<path fill="none" stroke="#BDF271" stroke-width="10" d="M263.04,102.121c0,0,35.169-88.78,110.498-50.369
	c34.498,17.59,32.502,43.594,32.502,43.594"/>
<path fill="none" stroke="#01A2A6" stroke-width="13" d="M335.014,373.278c-27.798-54.818-89.971-92.996-162.215-92.996
	c-72.244,0-134.417,38.178-162.215,92.996H335.014z"/>
<path fill="none" stroke="#01A2A6" stroke-width="13" d="M283.043,316.512c0,0,5.999-179.965-32.999-227.324
	c56.997,44.653,68.997,257.092,68.997,257.092"/>
<line fill="none" stroke="#BDF271" stroke-width="10" x1="280.04" y1="70.989" x2="300.04" y2="99.857"/>
<line fill="none" stroke="#BDF271" stroke-width="10" x1="298.04" y1="55.653" x2="325.04" y2="92.64"/>
<line fill="none" stroke="#BDF271" stroke-width="10" x1="325.04" y1="46.632" x2="342.04" y2="85.423"/>
<line fill="none" stroke="#BDF271" stroke-width="10" x1="353.04" y1="44.827" x2="359.04" y2="80.01"/>
<line fill="none" stroke="#BDF271" stroke-width="10" x1="381.04" y1="60.163" x2="379.04" y2="82.717"/>
<line fill="none" stroke="#BDF271" stroke-width="10" x1="235.04" y1="105.121" x2="247.04" y2="135.121"/>
<line fill="none" stroke="#BDF271" stroke-width="10" x1="201.04" y1="104.121" x2="225.04" y2="136.121"/>
<line fill="none" stroke="#BDF271" stroke-width="10" x1="174.04" y1="116.121" x2="201.04" y2="145.121"/>
<line fill="none" stroke="#BDF271" stroke-width="10" x1="157.04" y1="147.121" x2="177.04" y2="156.121"/>
<line fill="none" stroke="#BDF271" stroke-width="10" x1="211.04" y1="62.121" x2="211.04" y2="80.121"/>
<line fill="none" stroke="#BDF271" stroke-width="10" x1="173.04" y1="55.121" x2="185.04" y2="83.121"/>
<line fill="none" stroke="#BDF271" stroke-width="10" x1="260.04" y1="42.121" x2="273.04" y2="56.121"/>
<line fill="none" stroke="#BDF271" stroke-width="10" x1="291.04" y1="13.121" x2="299.04" y2="40.121"/>
</svg>
