<svg version="1.1" xmlns="http://www.w3.org/2000/svg" xmlns:xlink="http://www.w3.org/1999/xlink" x="0px" y="0px"
	 width="1558.999px" height="904.138px" viewBox="0 0 1558.999 904.138">
<g id="city">
	<g>
		<g>
			<path fill="#2F2933" d="M339.464,451.103c-1.728,0-3.267-1.118-3.803-2.762l0,0c-1.4-4.293-2.169-8.883-2.167-13.644l0,0
				c0.003-17.508,10.229-32.622,25.037-39.701l0,0c1.162-32.944,28.23-59.29,61.456-59.293l0,0
				c20.671,0.001,38.978,10.214,50.117,25.855l0,0c4.196-1.762,8.808-2.738,13.631-2.737l0,0
				c15.703,0.008,28.999,10.26,33.558,24.454l0,0c0.887-0.049,1.784-0.075,2.688-0.075l0,0
				c28.442,0.004,51.495,23.055,51.497,51.497l0,0c0,4.653-0.629,9.162-1.784,13.448l0,0c-0.473,1.749-2.051,2.958-3.862,2.958l0,0
				H339.464L339.464,451.103z M565.833,447.102v-4V447.102L565.833,447.102z M562.66,443.102c0.536-2.72,0.82-5.527,0.82-8.405l0,0
				c-0.004-12.024-4.862-22.872-12.74-30.757l0,0c-7.885-7.876-18.734-12.737-30.758-12.739l0,0c-1.747,0-3.481,0.116-5.209,0.322
				l0,0c-2.051,0.245-3.958-1.122-4.387-3.141l0,0c-2.614-12.306-13.553-21.568-26.651-21.561l0,0
				c-4.761,0.001-9.207,1.216-13.098,3.351l0,0c-1.861,1.023-4.184,0.421-5.312-1.377l0,0
				c-9.475-15.077-26.224-25.093-45.338-25.091l0,0c-14.784,0.001-28.133,5.98-37.826,15.668l0,0
				c-9.687,9.695-15.668,23.044-15.67,37.83l0,0c0,0.057,0.003,0.19,0.005,0.393l0,0c0.009,1.643-0.977,3.114-2.499,3.73l0,0
				c-13.192,5.345-22.51,18.266-22.504,33.372l0,0c0,2.898,0.346,5.708,0.994,8.405l0,0H562.66L562.66,443.102z"/>
		</g>
	</g>
</g>
<g id="awan__x2B__segi6">
	<path fill="none" stroke="#10273D" stroke-width="8" stroke-linecap="round" stroke-linejoin="round" d="M641.812,367.862
		c0,6.651-5.392,12.043-12.043,12.043h-33.722c-6.651,0-12.043-5.392-12.043-12.043l0,0c0-6.651,5.392-12.044,12.043-12.044h33.722
		C636.42,355.818,641.812,361.211,641.812,367.862L641.812,367.862z"/>
	<path fill="none" stroke="#10273D" stroke-width="8" stroke-linecap="round" stroke-linejoin="round" d="M1313.454,300.518
		c-7.271,0-14.132,1.737-20.211,4.8c-0.652-15.172-12.033-27.564-26.75-29.771c-7.143-28.735-33.104-50.035-64.049-50.035
		c-27.998,0-51.907,17.44-61.501,42.042c-0.503-0.012-1.001-0.038-1.506-0.038c-29.126,0-53.624,19.768-60.839,46.615
		c-5.058-1.053-10.297-1.611-15.668-1.611c-28.623,0-53.558,15.728-66.678,39.004h361.797c0.262-1.964,0.41-3.964,0.41-6
		C1358.458,320.668,1338.309,300.518,1313.454,300.518z"/>
	<path fill="#FFFFFF" d="M1227.269,228.194l-12,148.493l77.996,3c0,0,3-127.494-7.5-145.493S1227.269,228.194,1227.269,228.194z"/>
	<circle fill="#10273D" cx="837.289" cy="202.696" r="4.5"/>
	<circle fill="#10273D" cx="539.391" cy="190.519" r="4.501"/>
	<circle fill="#10273D" cx="953.432" cy="4.5" r="4.501"/>
	<circle fill="#10273D" cx="990.935" cy="270.027" r="4.501"/>
	<circle fill="#10273D" cx="876.924" cy="327.032" r="4.501"/>
	<circle fill="#10273D" cx="1158.953" cy="114.012" r="4.501"/>
	<circle fill="#10273D" cx="534.89" cy="291.029" r="4.501"/>
	<circle fill="#10273D" cx="293.366" cy="496.549" r="4.501"/>
	<circle fill="#10273D" cx="356.372" cy="162.016" r="4.501"/>
	<circle fill="#10273D" cx="611.398" cy="37.503" r="4.501"/>
	<circle fill="#29D9C2" cx="1346.472" cy="433.543" r="4.501"/>
	<circle fill="#29D9C2" cx="776.415" cy="64.506" r="4.501"/>
	<circle fill="#29D9C2" cx="678.905" cy="207.02" r="4.501"/>
	<circle fill="#29D9C2" cx="252.862" cy="249.025" r="4.501"/>
</g>
<g id="gunung">
	<path fill="#FFFFFF" d="M870.999,522.138c0,0-118-138-164-190c-50.46-57.042-69.732,17.072-96,10c-52-14-254,258-260,262"/>
	<path fill="#BDF271" d="M640.999,326.138c0,0-34,104-34,126s16,54,16,54l-22-16c0,0,4,14,4,26s32,26,30,42s18,16,18,16l-8,26
		l20.667,2.667l32.461-14.257L663,586.139l81.333-40.667l112-2.667l6.667-26.667c0,0-94-110-118-136s-56-76-76-68
		S640.999,326.138,640.999,326.138z"/>
	<g>
		<g>
			<path fill="#2F2933" d="M347.671,606.356c-1.168-1.752-0.771-4.092,0.864-5.369l0,0c0.034-0.034,0.086-0.087,0.149-0.154l0,0
				c0.205-0.215,0.524-0.572,0.92-1.034l0,0c0.798-0.929,1.919-2.284,3.312-4.001l0,0c2.786-3.435,6.668-8.326,11.452-14.366l0,0
				c9.571-12.082,22.753-28.771,38.123-47.788l0,0c30.743-38.037,70.226-85.383,107.21-123.97l0,0
				c24.677-25.733,48.171-47.559,67.56-60.286l0,0c11.125-7.234,20.836-11.701,29.547-11.775l0,0c1.795,0,3.548,0.208,5.226,0.659
				l0,0c0.884,0.237,1.729,0.343,2.576,0.343l0,0c2.282,0.004,4.747-0.803,7.524-2.425l0,0c2.763-1.61,5.744-4.003,8.876-6.767l0,0
				c6.29-5.522,13.117-12.509,21.314-17.419l0,0c5.459-3.263,11.658-5.602,18.602-5.598l0,0c11.735,0.011,24.511,6.595,39.069,23.08
				l0,0c46.051,52.06,164.034,190.04,164.043,190.051l0,0h0.002c1.435,1.68,1.238,4.205-0.442,5.64l0,0
				c-1.68,1.436-4.205,1.238-5.641-0.442l0,0c-0.018-0.021-7.373-8.622-19.152-22.371l0,0
				c-11.781-13.749-27.967-32.624-45.591-53.121l0,0c-35.244-40.992-76.246-88.494-99.212-114.457l0,0
				c-13.871-15.653-24.575-20.392-33.076-20.38l0,0c-7.642-0.019-14.565,3.856-21.37,9.314l0,0
				c-6.792,5.419-13.148,12.221-19.921,17.112l0,0c-4.512,3.228-9.411,5.761-15.025,5.784l0,0c-1.534,0-3.095-0.201-4.652-0.617l0,0
				c-0.926-0.25-1.969-0.385-3.15-0.385l0,0c-5.297-0.06-13.333,2.991-22.76,8.929l0,0c-9.451,5.901-20.363,14.527-32.103,25.044
				l0,0c-23.496,21.042-50.34,49.646-76.467,79.425l0,0c-52.285,59.588-101.681,123.807-116.845,142.435l0,0
				c-2.052,2.516-3.413,4.146-4.379,5.133l0,0c-0.285,0.274-0.458,0.482-1.037,0.885l0,0c-0.681,0.455-1.452,0.672-2.214,0.672l0,0
				C349.711,608.138,348.443,607.512,347.671,606.356L347.671,606.356z"/>
		</g>
	</g>
	<path fill="#BDF271" d="M1056.999,424.138c0,0-5,32-5,41s15,11,18,22s7,34,7,34s-12-28-18-31s-10-6-10-6s11,17,12,28s7,25,7,25
		s2,23,3,35s23,32,23,32h174c0,0-112.764-169.177-177-184C1064.999,414.138,1056.999,424.138,1056.999,424.138z"/>
	<path fill="none" stroke="#10273D" stroke-width="8" stroke-linecap="round" stroke-linejoin="round" d="M746.425,652.562
		c0,0,198.855-213.878,225.857-225.879c27.003-12.001,35.998,15.001,106.495-7.497c60.296-19.242,234.705,239.376,234.705,239.376
		L746.425,652.562z"/>
	<path fill="#BDF271" d="M940.999,602.138c0,0,8-46,10-51s24-30,27-41s9-29,9-29s-5,51-13,67s-3,54-3,54H940.999z"/>
	<path fill="#BDF271" d="M997.999,600.138c0,0,7-41,7-47s6-50,7-61s5-40,5-40s4,79,2,93s1,20,2,26s-2,30-2,30L997.999,600.138z"/>
	<path fill="#FFFFFF" d="M1114.775,493.683c0,0,12,7.5,15,26.999c3,19.499,20.999,28.498,20.999,28.498l-26.999-11.999
		C1123.774,537.181,1125.274,516.182,1114.775,493.683z"/>
	<path fill="#FFFFFF" d="M669.999,370.138c0,0,31,16,34,31c3,15,2.796,29.547,2.796,29.547s11.999,0.001,14.999,6
		c3,5.999,16.499,37.498,16.499,37.498s-22.499-25.5-28.498-29.999c-6-4.499-11.796-41.547-14.796-46.046
		C692,393.639,669.999,370.138,669.999,370.138z"/>
	<path fill="#FFFFFF" d="M685.999,571.138c0,0-25-22-27-40s-9-36-9-36l-27-35c0,0,41,20,43,31s32,78,32,78L685.999,571.138z"/>
	<polygon fill="#BDF271" points="528.999,600.138 568.999,442.138 550.999,606.138 	"/>
	<polygon fill="#BDF271" points="422.379,603.062 491.386,531.054 446.382,597.06 	"/>
</g>
<g id="gunung_putih">
	<polygon fill="#FFFFFF" points="720.999,544.138 784.999,514.138 856.333,542.805 840.999,549.471 905.666,586.138 
		878.333,586.138 909.666,602.805 1213.999,602.805 1215.999,527.138 1214.999,497.138 1292.999,616.138 1013.999,688.138 
		682.999,662.138 	"/>
</g>
<g id="walikota">
	<polygon fill="#29D9C2" points="657.277,603.672 327.293,600.673 217.799,694.668 639.076,694.668 639.076,637.138 
		606.076,635.138 	"/>
	<polygon fill="#29D9C2" points="909.799,603.672 1239.782,600.673 1349.277,694.668 927.999,694.668 927.999,637.138 
		960.999,635.138 	"/>
	<polygon fill="#29D9C2" points="679.999,598.138 863.999,598.138 929.999,634.138 955.999,632.138 873.999,586.138 
		691.999,585.138 	"/>
	<polygon fill="#29D9C2" points="739.999,546.138 827.999,546.138 896.999,582.138 867.999,586.138 815.999,558.138 
		725.999,558.138 	"/>
	<polygon fill="#29D9C2" points="782.999,517.138 799.999,545.138 843.999,541.138 	"/>
	<polygon fill="#29D9C2" points="646.999,656.138 733.999,656.138 926.999,656.138 927.999,637.138 644.999,637.138 	"/>
	<polygon fill="#29D9C2" points="712.999,667.138 853.999,667.138 837.999,653.138 733.999,656.138 	"/>
	<polygon fill="#29D9C2" points="824.333,712.806 824.333,758.14 883.666,758.14 883.666,710.806 	"/>
	<polygon fill="#29D9C2" points="757.666,712.806 757.666,758.14 816.999,758.14 816.999,710.806 	"/>
	<polygon fill="#29D9C2" points="691.666,712.806 691.666,758.14 750.999,758.14 750.999,710.806 	"/>
	<polygon fill="#29D9C2" points="693.667,804.222 693.667,881.64 706,881.64 706,800.806 	"/>
	<polygon fill="#29D9C2" points="759.666,804.222 759.666,881.64 772,881.64 772,800.806 	"/>
	<polygon fill="#29D9C2" points="826.166,804.222 826.166,881.64 838.5,881.64 838.5,800.806 	"/>
	<polygon fill="#A6D1E7" points="890.664,804.222 890.664,881.64 902.997,881.64 902.997,800.806 	"/>
	<polygon fill="#01A2A6" points="962.333,695.474 962.333,716.141 929.666,716.141 929.666,692.141 	"/>
	<polygon fill="#01A2A6" points="962.333,867.446 962.333,894.141 929.666,894.141 929.666,863.141 	"/>
	<polygon fill="#01A2A6" points="952.333,716.807 952.333,775.473 928.999,775.473 930.333,716.807 	"/>
	<polygon fill="#01A2A6" points="952.333,789.307 952.333,867.473 928.999,867.473 930.333,789.307 	"/>
	<polygon fill="#01A2A6" points="959.499,777.638 959.499,790.138 930.999,788.138 932.499,774.638 	"/>
	<rect x="943.666" y="790.805" fill="#01A2A6" width="372.667" height="5.333"/>
	<rect x="949" y="714.138" fill="#29D9C2" width="367.333" height="14.666"/>
	<rect x="986.333" y="731.471" fill="#29D9C2" width="20.667" height="28.667"/>
	<rect x="1047.333" y="731.471" fill="#29D9C2" width="20.667" height="28.667"/>
	<rect x="1229.333" y="731.471" fill="#A6D1E7" width="20.667" height="28.667"/>
	<rect x="569.482" y="731.471" fill="#29D9C2" width="20.667" height="28.667"/>
	<rect x="477.986" y="731.471" fill="#29D9C2" width="20.667" height="28.667"/>
	<rect x="416.49" y="731.471" fill="#29D9C2" width="20.667" height="28.667"/>
	<rect x="386.491" y="731.471" fill="#29D9C2" width="20.667" height="28.667"/>
	<rect x="961.999" y="806.138" fill="#A6D1E7" width="29" height="42"/>
	<rect x="490.319" y="806.138" fill="#29D9C2" width="29" height="42"/>
	<rect x="395.824" y="806.138" fill="#29D9C2" width="29" height="42"/>
	<rect x="1149.999" y="806.138" fill="#A6D1E7" width="29" height="42"/>
	<polygon fill="#29D9C2" points="864.999,649.138 907.999,682.138 907.999,691.138 912.999,691.138 912.999,715.638 
		907.999,715.638 907.999,750.638 911.999,750.638 911.999,777.138 908.499,777.138 908.499,788.638 912.499,788.638 
		912.499,881.138 892.999,878.138 893.499,815.138 896.999,812.638 895.999,768.638 893.999,756.138 886.499,699.638 
		885.999,684.138 832.499,646.138 	"/>
	<rect x="630.999" y="695.638" fill="#01A2A6" width="12.5" height="20"/>
	<rect x="626.499" y="715.638" fill="#01A2A6" width="20" height="62"/>
	<rect x="633.999" y="775.638" fill="#A6D1E7" width="9" height="13"/>
	<rect x="627.499" y="787.638" fill="#01A2A6" width="16.5" height="78"/>
	<rect x="635.499" y="864.138" fill="#01A2A6" width="7.5" height="29.5"/>
	<rect x="246.831" y="696.669" fill="#01A2A6" width="390.418" height="8.969"/>
	<rect x="255.831" y="788.166" fill="#01A2A6" width="389.98" height="17.999"/>
	<polygon fill="#01A2A6" points="949.999,601.138 1000.999,646.138 956.999,646.138 956.999,695.138 924.999,696.138 
		927.999,637.138 960.999,635.138 913.999,604.138 	"/>
	<polygon fill="#01A2A6" points="656.999,604.138 590.315,648.674 629.313,648.674 629.313,696.672 644.999,697.138 
		644.999,635.138 620.999,633.138 	"/>
	<polygon fill="none" stroke="#10273D" stroke-width="8" stroke-linecap="round" stroke-linejoin="round" points="712.996,546.075 
		785.278,516.321 857.56,546.075 	"/>
	<polyline fill="none" stroke="#10273D" stroke-width="8" stroke-linecap="round" stroke-linejoin="round" points="874.393,585.855 
		963.276,635.328 610.665,635.328 692.928,586.001 	"/>
	<polyline fill="none" stroke="#10273D" stroke-width="8" stroke-linecap="round" stroke-linejoin="round" points="825.212,546.143 
		908.535,585.894 662.022,585.894 746.623,546.143 	"/>
	<polyline fill="none" stroke="#10273D" stroke-width="8" stroke-linecap="round" stroke-linejoin="round" points="657.842,602.451 
		336.424,602.451 220.538,696.472 641.512,696.472 	"/>
	
		<line fill="none" stroke="#10273D" stroke-width="8" stroke-linecap="round" stroke-linejoin="round" x1="645.453" y1="635.067" x2="645.453" y2="892.353"/>
	
		<line fill="none" stroke="#10273D" stroke-width="8" stroke-linecap="round" stroke-linejoin="round" x1="927.514" y1="635.067" x2="927.514" y2="892.353"/>
	<polygon fill="none" stroke="#10273D" stroke-width="8" stroke-linecap="round" stroke-linejoin="round" points="731.794,654.929 
		679.092,684.789 891.686,684.789 838.984,654.929 	"/>
	
		<rect x="684.809" y="685.425" fill="none" stroke="#10273D" stroke-width="8" stroke-linecap="round" stroke-linejoin="round" width="201.161" height="13.283"/>
	
		<rect x="669.21" y="700.115" fill="none" stroke="#10273D" stroke-width="8" stroke-linecap="round" stroke-linejoin="round" width="233.242" height="9.396"/>
	
		<rect x="669.21" y="760.368" fill="none" stroke="#10273D" stroke-width="8" stroke-linecap="round" stroke-linejoin="round" width="233.242" height="9.396"/>
	
		<rect x="669.21" y="793.896" fill="none" stroke="#10273D" stroke-width="8" stroke-linecap="round" stroke-linejoin="round" width="233.242" height="9.396"/>
	
		<rect x="674.312" y="772.06" fill="none" stroke="#10273D" stroke-width="8" stroke-linecap="round" stroke-linejoin="round" width="223.037" height="21.728"/>
	
		<rect x="682.33" y="710.507" fill="none" stroke="#10273D" stroke-width="8" stroke-linecap="round" stroke-linejoin="round" width="10.69" height="49.565"/>
	
		<rect x="678.988" y="804.532" fill="none" stroke="#10273D" stroke-width="8" stroke-linecap="round" stroke-linejoin="round" width="17.372" height="12.392"/>
	
		<rect x="744.587" y="804.532" fill="none" stroke="#10273D" stroke-width="8" stroke-linecap="round" stroke-linejoin="round" width="17.372" height="12.392"/>
	
		<rect x="809.276" y="804.532" fill="none" stroke="#10273D" stroke-width="8" stroke-linecap="round" stroke-linejoin="round" width="17.372" height="12.392"/>
	
		<rect x="878.519" y="804.532" fill="none" stroke="#10273D" stroke-width="8" stroke-linecap="round" stroke-linejoin="round" width="17.372" height="12.392"/>
	
		<rect x="881.558" y="710.507" fill="none" stroke="#10273D" stroke-width="8" stroke-linecap="round" stroke-linejoin="round" width="10.689" height="49.565"/>
	
		<rect x="747.444" y="710.507" fill="none" stroke="#10273D" stroke-width="8" stroke-linecap="round" stroke-linejoin="round" width="10.691" height="49.565"/>
	
		<rect x="812.557" y="710.507" fill="none" stroke="#10273D" stroke-width="8" stroke-linecap="round" stroke-linejoin="round" width="10.69" height="49.565"/>
	
		<rect x="682.33" y="816.923" fill="none" stroke="#10273D" stroke-width="8" stroke-linecap="round" stroke-linejoin="round" width="10.69" height="64.721"/>
	
		<rect x="881.558" y="816.923" fill="none" stroke="#10273D" stroke-width="8" stroke-linecap="round" stroke-linejoin="round" width="10.689" height="64.721"/>
	
		<rect x="747.444" y="816.923" fill="none" stroke="#10273D" stroke-width="8" stroke-linecap="round" stroke-linejoin="round" width="10.691" height="64.721"/>
	
		<rect x="812.557" y="816.923" fill="none" stroke="#10273D" stroke-width="8" stroke-linecap="round" stroke-linejoin="round" width="10.69" height="64.721"/>
	
		<rect x="245.315" y="696.473" fill="none" stroke="#10273D" stroke-width="8" stroke-linecap="round" stroke-linejoin="round" width="400.134" height="19.679"/>
	
		<line fill="none" stroke="#10273D" stroke-width="8" stroke-linecap="round" stroke-linejoin="round" x1="646.56" y1="616.535" x2="688.265" y2="616.535"/>
	
		<line fill="none" stroke="#10273D" stroke-width="8" stroke-linecap="round" stroke-linejoin="round" x1="741.345" y1="616.535" x2="809.59" y2="616.535"/>
	
		<line fill="none" stroke="#10273D" stroke-width="8" stroke-linecap="round" stroke-linejoin="round" x1="700.904" y1="616.535" x2="714.805" y2="616.535"/>
	
		<line fill="none" stroke="#10273D" stroke-width="8" stroke-linecap="round" stroke-linejoin="round" x1="836.13" y1="616.535" x2="850.032" y2="616.535"/>
	
		<line fill="none" stroke="#10273D" stroke-width="8" stroke-linecap="round" stroke-linejoin="round" x1="871.832" y1="616.535" x2="878.783" y2="616.535"/>
	
		<rect x="244.755" y="776.519" fill="none" stroke="#10273D" stroke-width="8" stroke-linecap="round" stroke-linejoin="round" width="398.98" height="11.999"/>
	
		<line fill="none" stroke="#10273D" stroke-width="8" stroke-linecap="round" stroke-linejoin="round" x1="258.255" y1="718.021" x2="258.255" y2="775.018"/>
	
		<line fill="none" stroke="#10273D" stroke-width="8" stroke-linecap="round" stroke-linejoin="round" x1="258.255" y1="791.518" x2="258.255" y2="868.017"/>
	<rect x="293.654" y="730.521" fill="none" stroke="#10273D" stroke-width="8" width="19.564" height="29.998"/>
	<rect x="306.152" y="804.518" fill="none" stroke="#10273D" stroke-width="8" width="28.368" height="43.497"/>
	<rect x="396.147" y="804.518" fill="none" stroke="#10273D" stroke-width="8" width="28.368" height="43.497"/>
	<rect x="490.643" y="804.518" fill="none" stroke="#10273D" stroke-width="8" width="28.368" height="43.497"/>
	<rect x="583.638" y="804.518" fill="none" stroke="#10273D" stroke-width="8" width="28.368" height="43.497"/>
	<rect x="326.655" y="730.521" fill="none" stroke="#10273D" stroke-width="8" width="19.564" height="29.998"/>
	<rect x="385.719" y="730.521" fill="none" stroke="#10273D" stroke-width="8" width="19.564" height="29.998"/>
	<rect x="418.719" y="730.521" fill="none" stroke="#10273D" stroke-width="8" width="19.564" height="29.998"/>
	<rect x="476.719" y="730.521" fill="none" stroke="#10273D" stroke-width="8" width="19.564" height="29.998"/>
	<rect x="509.719" y="730.521" fill="none" stroke="#10273D" stroke-width="8" width="19.564" height="29.998"/>
	<rect x="568.719" y="730.521" fill="none" stroke="#10273D" stroke-width="8" width="19.564" height="29.998"/>
	<rect x="601.719" y="730.521" fill="none" stroke="#10273D" stroke-width="8" width="19.564" height="29.998"/>
	<polyline fill="none" stroke="#10273D" stroke-width="8" points="649.501,894.465 254.501,894.465 254.501,866.465 
		649.501,866.465 	"/>
	<polyline fill="none" stroke="#10273D" stroke-width="8" stroke-linecap="round" stroke-linejoin="round" points="908.299,602.451 
		1239.188,602.451 1355.075,696.472 934.1,696.472 	"/>
	
		<rect x="930.162" y="696.473" fill="none" stroke="#10273D" stroke-width="8" stroke-linecap="round" stroke-linejoin="round" width="400.135" height="19.679"/>
	
		<rect x="931.877" y="776.519" fill="none" stroke="#10273D" stroke-width="8" stroke-linecap="round" stroke-linejoin="round" width="398.979" height="11.999"/>
	
		<line fill="none" stroke="#10273D" stroke-width="8" stroke-linecap="round" stroke-linejoin="round" x1="1317.358" y1="718.021" x2="1317.358" y2="775.018"/>
	
		<line fill="none" stroke="#10273D" stroke-width="8" stroke-linecap="round" stroke-linejoin="round" x1="1317.358" y1="791.518" x2="1317.358" y2="868.017"/>
	<rect x="1262.394" y="730.521" fill="none" stroke="#10273D" stroke-width="8" width="19.564" height="29.998"/>
	<rect x="1241.093" y="804.518" fill="none" stroke="#10273D" stroke-width="8" width="28.368" height="43.497"/>
	<rect x="1151.097" y="804.518" fill="none" stroke="#10273D" stroke-width="8" width="28.368" height="43.497"/>
	<rect x="1056.602" y="804.518" fill="none" stroke="#10273D" stroke-width="8" width="28.368" height="43.497"/>
	<rect x="963.607" y="804.518" fill="none" stroke="#10273D" stroke-width="8" width="28.368" height="43.497"/>
	<rect x="1229.394" y="730.521" fill="none" stroke="#10273D" stroke-width="8" width="19.564" height="29.998"/>
	<rect x="1170.329" y="730.521" fill="none" stroke="#10273D" stroke-width="8" width="19.563" height="29.998"/>
	<rect x="1137.329" y="730.521" fill="none" stroke="#10273D" stroke-width="8" width="19.563" height="29.998"/>
	<rect x="1079.329" y="730.521" fill="none" stroke="#10273D" stroke-width="8" width="19.563" height="29.998"/>
	<rect x="1046.329" y="730.521" fill="none" stroke="#10273D" stroke-width="8" width="19.563" height="29.998"/>
	<rect x="987.329" y="730.521" fill="none" stroke="#10273D" stroke-width="8" width="19.563" height="29.998"/>
	<rect x="954.329" y="730.521" fill="none" stroke="#10273D" stroke-width="8" width="19.563" height="29.998"/>
	<polyline fill="none" stroke="#10273D" stroke-width="8" points="926.112,894.465 1321.112,894.465 1321.112,866.465 
		926.112,866.465 	"/>
	
		<rect x="646.462" y="882.529" fill="none" stroke="#10273D" stroke-width="8" stroke-linecap="round" stroke-linejoin="round" width="279.649" height="11.936"/>
	
		<line fill="none" stroke="#10273D" stroke-width="8" stroke-linecap="round" stroke-linejoin="round" x1="698.31" y1="569.177" x2="770.306" y2="569.177"/>
	
		<line fill="none" stroke="#10273D" stroke-width="8" stroke-linecap="round" stroke-linejoin="round" x1="786.31" y1="569.177" x2="796.333" y2="569.177"/>
	
		<line fill="none" stroke="#10273D" stroke-width="8" stroke-linecap="round" stroke-linejoin="round" x1="829.643" y1="569.177" x2="839.666" y2="569.177"/>
</g>
<g id="tuguputih">
	<path fill="#FFFFFF" d="M1216.999,589.138v32l-26,1c0,0-7,13-5,27s2,26,5,31s15,5,15,5l10,10l-43,7l-2,13l3,11l-5,1l-1,21l-12,2
		l-1,27h-138l-2,14l-41-1v16l-19-1l11,15c0,0-22,26-18,41s20,35,20,35h471l-42-98l-47-30l2-16l-11-6l-4-20l-3-21l-43-5l11-15
		c0,0,17-3,18-7s13-50-6-57S1216.999,589.138,1216.999,589.138z"/>
	<path fill="#29D9C2" d="M1540.999,891.067c0,0,14-17.057,14-25.585s-607,0-607,0s11,28.997,20,30.702
		C976.999,897.891,1540.999,891.067,1540.999,891.067z"/>
	<rect x="976.999" y="791.138" fill="#29D9C2" width="559" height="14"/>
	<path fill="#29D9C2" d="M1378.762,849.164c0-1.657-1.343-3-3-3H951.283c-1.657,0-3,1.343-3,3l0,0c0,1.657,1.343,3,3,3h424.478
		C1377.418,852.164,1378.762,850.821,1378.762,849.164L1378.762,849.164z"/>
	<path fill="#A6D1E7" d="M1419.666,848.804c0,2.025-1.642,3.667-3.667,3.667h-16c-2.025,0-3.667-1.642-3.667-3.667l0,0
		c0-2.024,1.642-3.666,3.667-3.666h16C1418.024,845.138,1419.666,846.779,1419.666,848.804L1419.666,848.804z"/>
</g>
<g id="awan_putih">
	<path fill="#FFFFFF" d="M229.666,762.471c0,0,44,0,50.666,32s1.667,37.667,1.667,37.667s21,6,25,12s5.667,8.667,5.667,8.667
		s26.333-35.333,57-24.667c30.667,10.666,42.333,48.333,47.333,76l-401-2"/>
	<path fill="#BDF271" d="M177.512,801.215c0,0,2.821-1.077,10.31,13.45c-1.489-15.194,12.18-55.026,64.678-50.526
		c-35.998-4.499-42.5-5.5-54.179,2.528C174.577,782.989,177.512,801.215,177.512,801.215"/>
	<path fill="#BDF271" d="M321.999,863.138c0,0,29-39,62.5-27.5c-32-16.5-60-3-68,5.5c-2,7.5,2,16,2,16L321.999,863.138"/>
	<path fill="#BDF271" d="M275.5,831.305c0,0-28,1.334-36,28.667c8.666-14,28-23.334,46.666-19.334c9.5,1.167,11.334-9.333-4.666-10
		C279.992,830.575,275.5,831.305,275.5,831.305z"/>
	<path fill="#BDF271" d="M152.499,800.638c0,0-25,17-4,40c10.966,12.011,24,0,43,8s11,18,14,27s46,4,52,11s12,9,12,9h-250
		c0,0-6.5-24.5,14.5-39.5l13.5-8h16.5c0,0,26-40.5,68.5-26C143.499,800.638,145.011,803.594,152.499,800.638z"/>
	<path fill="#A5D650" d="M60.499,851.638c0,0-22.5-1.5-20.5,43c35,0,128.5-3.5,128.5-3.5s5.5-21-25-23.5s-33.5-9-29.5-24.5
		S93.499,807.138,60.499,851.638z"/>
</g>
<g id="tugu_line_x2B_warna">
	<g>
		<g>
			<path fill="#2F2933" d="M414.272,898.136c-2.21-0.032-3.974-1.851-3.939-4.059l0,0c0.008-0.492,0.011-0.981,0.011-1.468l0,0
				c-0.021-20.32-6.512-35.254-16.519-45.257l0,0c-10.023-9.988-23.763-15.158-38.818-15.166l0,0
				c-15.452,0.002-29.359,6.423-39.292,16.751l0,0c-0.782,0.814-1.855,1.255-2.983,1.227l0,0c-1.127-0.028-2.179-0.522-2.92-1.372
				l0,0c-7.099-8.156-17.44-13.36-29.043-13.584l0,0c-1.31-0.025-2.516-0.684-3.244-1.771l0,0c-0.731-1.088-0.883-2.453-0.408-3.676
				l0,0c2.178-5.612,3.381-11.693,3.383-18.076l0,0c-0.002-13.821-5.591-26.297-14.647-35.358l0,0
				c-9.061-9.056-21.537-14.644-35.358-14.646l0,0c-24.296-0.01-44.544,17.343-49.057,40.306l0,0
				c-0.268,1.363-1.225,2.491-2.529,2.977l0,0c-1.302,0.486-2.764,0.258-3.858-0.596l0,0c-4.169-3.253-9.369-5.183-15.063-5.185l0,0
				c-9.259-0.002-17.301,5.13-21.478,12.707l0,0c-0.538,0.976-1.455,1.682-2.535,1.952l0,0c-1.08,0.272-2.221,0.08-3.153-0.528l0,0
				c-6.436-4.19-14.084-6.626-22.338-6.628l0,0c-11.336,0.002-21.562,4.583-28.995,12.01l0,0
				c-7.427,7.433-12.009,17.658-12.01,28.995l0,0c0,2.21-1.79,4-4.001,4l0,0c-2.208,0-4-1.79-4-4l0,0
				c0.004-27.068,21.94-49.002,49.005-49.005l0,0c8.399-0.002,16.321,2.128,23.234,5.861l0,0
				c5.906-8.097,15.479-13.362,26.271-13.364l0,0c5.399-0.001,10.506,1.327,14.993,3.665l0,0
				c7.218-23.83,29.335-41.158,55.514-41.167l0,0c32.038,0.002,58.003,25.968,58.007,58.004l0,0c0,5.521-0.782,10.866-2.229,15.927
				l0,0c10.29,1.359,19.553,6.017,26.667,12.868l0,0c11.097-10.111,25.87-16.296,42.068-16.293l0,0
				c16.872-0.009,32.803,5.865,44.466,17.503l0,0c11.68,11.625,18.892,28.904,18.872,50.921l0,0c0,0.526-0.004,1.056-0.011,1.589
				l0,0c-0.034,2.187-1.818,3.938-3.998,3.938l0,0C414.314,898.137,414.293,898.137,414.272,898.136L414.272,898.136z"/>
		</g>
	</g>
	<g>
		<g>
			<path fill="#2F2933" d="M317.97,895.228c-2.037-0.858-2.993-3.202-2.138-5.239l0,0c0.854-2.031,1.542-4.145,2.048-6.331l0,0
				h0.002c0.498-2.152,2.648-3.493,4.799-2.993l0,0c2.152,0.499,3.492,2.647,2.993,4.8l0,0c-0.609,2.633-1.439,5.182-2.466,7.627
				l0,0c-0.645,1.529-2.129,2.451-3.691,2.451l0,0C319,895.541,318.476,895.44,317.97,895.228L317.97,895.228z"/>
		</g>
	</g>
	<g>
		<g>
			<path fill="#2F2933" d="M318.721,870.865c-1.919-20.011-18.796-35.686-39.322-35.679l0,0c-5.466,0-10.652,1.106-15.376,3.102l0,0
				v0.002c-2.037,0.859-4.383-0.093-5.243-2.128l0,0c-0.861-2.035,0.091-4.381,2.126-5.243l0,0
				c5.686-2.405,11.945-3.736,18.493-3.734l0,0c24.688,0.007,44.97,18.82,47.284,42.914l0,0c0.212,2.199-1.4,4.154-3.6,4.364l0,0
				c-0.129,0.012-0.258,0.019-0.385,0.019l0,0C320.661,874.483,318.919,872.935,318.721,870.865L318.721,870.865z"/>
		</g>
	</g>
	<path fill="none" stroke="#10273D" stroke-width="8" stroke-linecap="round" stroke-linejoin="round" d="M189.244,823.685
		c0-15.742-12.761-28.503-28.502-28.503c-15.742,0-28.503,12.761-28.503,28.503"/>
	<polygon fill="#29D9C2" points="1342,747.467 1342,747.467 1168.346,747.467 1168.346,747.467 1168.346,724.616 1168.346,724.616 
		1342,724.616 1342,724.616 	"/>
	<polygon fill="#29D9C2" points="1266.999,612.138 1266.999,232.138 1278.999,230.138 1278.999,616.138 	"/>
	<polygon fill="#29D9C2" points="1226.999,612.138 1226.999,232.138 1238.999,230.138 1238.999,616.138 	"/>
	<path fill="#29D9C2" d="M1236.999,223.138c0-1.5,5.5-56.5,11-59.5s17,5.5,17,5.5l2.5,53c0,0-9-12.5-15.5-10
		S1236.999,223.138,1236.999,223.138z"/>
	<path fill="#29D9C2" d="M1280.999,662.138c0,3.313-2.687,6-6,6h-42c-3.313,0-6-2.687-6-6v-24c0-3.313,2.687-6,6-6h42
		c3.313,0,6,2.687,6,6V662.138z"/>
	<path fill="#29D9C2" d="M1323.999,662.138c0,3.313-2.687,6-6,6h-17c-3.313,0-6-2.687-6-6v-24c0-3.313,2.687-6,6-6h17
		c3.313,0,6,2.687,6,6V662.138z"/>
	<path fill="#29D9C2" d="M1213.999,662.138c0,3.313-2.687,6-6,6h-17c-3.313,0-6-2.687-6-6v-24c0-3.313,2.687-6,6-6h17
		c3.313,0,6,2.687,6,6V662.138z"/>
	<path fill="none" stroke="#10273D" stroke-width="8" stroke-linecap="round" stroke-linejoin="round" d="M1237.634,227.506v-37.24
		c0-5.701,5.423-26.411,12.111-26.411h6.46c6.688,0,12.112,20.71,12.112,26.411v42.872"/>
	<path fill="none" stroke="#10273D" stroke-width="8" stroke-linecap="round" stroke-linejoin="round" d="M1262.607,153.249
		c0,5.409-4.385,9.793-9.792,9.793l0,0c-5.408,0-9.793-4.384-9.793-9.793l0,0c0-5.408,4.385-9.792,9.793-9.792l0,0
		C1258.222,143.457,1262.607,147.841,1262.607,153.249L1262.607,153.249z"/>
	<path fill="none" stroke="#10273D" stroke-width="8" stroke-linecap="round" stroke-linejoin="round" d="M1240.572,617.715V244.48
		c0-5.408-4.385-15.668-9.792-15.668h-5.223c-5.408,0-9.792,10.26-9.792,15.668v373.234H1240.572z"/>
	<path fill="none" stroke="#10273D" stroke-width="8" stroke-linecap="round" stroke-linejoin="round" d="M1265.379,617.715V230.771
		c0-5.409-4.385-17.627-9.792-17.627h-5.222c-5.408,0-9.793,12.218-9.793,17.627v386.943H1265.379z"/>
	<path fill="none" stroke="#10273D" stroke-width="8" stroke-linecap="round" stroke-linejoin="round" d="M1291.494,617.715V244.48
		c0-5.408-4.385-15.668-9.793-15.668h-5.223c-5.407,0-9.792,10.26-9.792,15.668v373.234H1291.494z"/>
	<path fill="none" stroke="#10273D" stroke-width="8" stroke-linecap="round" stroke-linejoin="round" d="M1322.177,672.74
		c0,5.409-4.385,9.793-9.792,9.793h-116.206c-5.408,0-9.792-4.384-9.792-9.793v-43.087c0-5.409,4.384-9.793,9.792-9.793h116.206
		c5.408,0,9.792,4.384,9.792,9.793V672.74z"/>
	<polyline fill="none" stroke="#10273D" stroke-width="8" stroke-linecap="round" stroke-linejoin="round" points="
		1204.339,682.206 1220.987,701.791 1289.535,701.791 1303.245,685.143 	"/>
	<polygon fill="none" stroke="#10273D" stroke-width="8" stroke-linecap="round" stroke-linejoin="round" points="1336.539,726.927 
		1336.539,726.927 1173.331,726.927 1173.331,726.927 1173.331,703.425 1173.331,703.425 1336.539,703.425 1336.539,703.425 	"/>
	<polygon fill="none" stroke="#10273D" stroke-width="8" stroke-linecap="round" stroke-linejoin="round" points="1341.761,750.429 
		1341.761,750.429 1168.108,750.429 1168.108,750.429 1168.108,726.927 1168.108,726.927 1341.761,726.927 1341.761,726.927 	"/>
	<polygon fill="none" stroke="#10273D" stroke-width="8" stroke-linecap="round" stroke-linejoin="round" points="1353.512,773.931 
		1353.512,773.931 1156.357,773.931 1156.357,773.931 1156.357,750.429 1156.357,750.429 1353.512,750.429 1353.512,750.429 	"/>
	<path fill="none" stroke="#10273D" stroke-width="8" stroke-linecap="round" stroke-linejoin="round" d="M1015.997,788.16v-11.619
		c3.917,0,479.182,0,479.182,0v12.118"/>
	<path fill="none" stroke="#10273D" stroke-width="8" stroke-linecap="round" stroke-linejoin="round" d="M975.835,802.805v-12.554
		c4.574,0,559.504,0,559.504,0v13.22"/>
	
		<line fill="none" stroke="#10273D" stroke-width="8" stroke-linecap="round" stroke-linejoin="round" x1="1253.815" y1="143.457" x2="1253.815" y2="78.694"/>
	<polygon fill="none" stroke="#10273D" stroke-width="8" stroke-linecap="round" stroke-linejoin="round" points="954.999,805.138 
		1548.999,805.138 1538.999,821.138 966.999,821.138 	"/>
	<path fill="none" stroke="#10273D" stroke-width="8" stroke-linecap="round" stroke-linejoin="round" d="M966.999,821.138
		c0,0-18,11-18,37s21,36,21,36h568c0,0,17-8,17-40s-16-33-16-33"/>
	<g>
		<g>
			<path fill="#2F2933" d="M20.998,896.138H3.999c-1.054,0-2.084-0.427-2.828-1.173l0,0C0.425,894.221,0,893.19,0,892.137l0,0
				c-0.002-0.361,0.003-0.719,0.009-1.08l0,0c0.579-27.671,23.183-49.917,50.989-49.92l0,0c6.607,0,12.938,1.26,18.739,3.555l0,0
				c2.056,0.812,3.062,3.135,2.249,5.191l0,0c-0.812,2.054-3.135,3.062-5.189,2.25l0,0c-4.89-1.933-10.21-2.995-15.8-2.995l0,0
				c-22.398-0.004-40.801,17.131-42.816,38.999l0,0h12.816l165,0.002c2.21,0,4.001,1.79,4.001,3.999l0,0
				c0,2.209-1.792,4.001-4.001,4.001l0,0H20.998L20.998,896.138z"/>
		</g>
	</g>
	<g>
		<g>
			<path fill="#2F2933" d="M203.999,895.137c-2.209,0-4-1.79-4-3.999l0,0c0-2.211,1.791-4,4-4l0,0h18.999
				c2.209,0,4.001,1.789,4.001,4l0,0c0,2.209-1.792,3.999-4.001,3.999l0,0H203.999L203.999,895.137z"/>
		</g>
	</g>
</g>
</svg>
