<?xml version="1.0" encoding="utf-8"?>
<!-- Generator: Adobe Illustrator 17.0.0, SVG Export Plug-In . SVG Version: 6.00 Build 0)  -->
<!DOCTYPE svg PUBLIC "-//W3C//DTD SVG 1.1//EN" "http://www.w3.org/Graphics/SVG/1.1/DTD/svg11.dtd">
<svg version="1.1" id="Layer_1" xmlns="http://www.w3.org/2000/svg" xmlns:xlink="http://www.w3.org/1999/xlink" x="0px" y="0px"
	 width="29.498px" height="29.498px" viewBox="0 0 29.498 29.498" enable-background="new 0 0 29.498 29.498" xml:space="preserve">
<path fill="#FFFFFF" d="M14.749,0C6.604,0,0,6.604,0,14.749c0,8.145,6.604,14.749,14.749,14.749c8.145,0,14.749-6.604,14.749-14.749
	C29.498,6.602,22.894,0,14.749,0z M18.562,14.747l-2.418,0.002l-0.002,8.849h-3.317v-8.849h-2.213V11.7l2.213-0.002l-0.004-1.796
	c0-2.489,0.674-4.002,3.604-4.002h2.441v3.051h-1.527c-1.142,0-1.197,0.426-1.197,1.221l-0.003,1.527h2.744L18.562,14.747z"/>
</svg>
