<?xml version="1.0" encoding="utf-8"?>
<!-- Generator: Adobe Illustrator 17.0.0, SVG Export Plug-In . SVG Version: 6.00 Build 0)  -->
<!DOCTYPE svg PUBLIC "-//W3C//DTD SVG 1.1//EN" "http://www.w3.org/Graphics/SVG/1.1/DTD/svg11.dtd">
<svg version="1.1" id="Layer_1" xmlns="http://www.w3.org/2000/svg" xmlns:xlink="http://www.w3.org/1999/xlink" x="0px" y="0px"
	 width="1440px" height="186.955px" viewBox="0 0 1440 186.955" enable-background="new 0 0 1440 186.955" xml:space="preserve">
<g>
	<g>
		<path fill="#251F29" d="M1440,84.955c0,34,0,68,0,102H0c0-22.667,0-45.333,0-68c0.907-0.719,1.861-1.386,2.715-2.164
			c32.907-29.947,65.837-59.868,98.642-89.927c2.714-2.487,4.802-3.117,8.257-1.553c9.548,4.324,19.588,7.648,28.859,12.473
			c8.955,4.66,17.427,5.563,26.378,0.925c3.516-1.822,6.328-1.026,9.577,1.149c39.171,26.225,78.444,52.298,117.69,78.41
			c14.821,9.861,29.642,19.723,44.578,29.662c1.37-1.026,2.58-1.88,3.734-2.804c34.867-27.896,69.814-55.694,104.49-83.827
			c4.595-3.728,7.626-4.202,12.789-1.033c26.965,16.552,54.273,32.544,81.294,49.007c3.84,2.34,6.122,2.012,9.453-0.694
			c10.99-8.927,22.277-17.489,33.448-26.194c30.359-23.656,60.751-47.27,91.023-71.038c2.887-2.267,4.821-2.397,7.661-0.09
			c4.649,3.776,9.95,6.785,14.399,10.762c4.494,4.016,8.353,4.702,12.666,0.171c3.032-3.185,5.923-2.554,9.633-0.513
			c46.244,25.445,92.612,50.663,138.873,76.076c3.234,1.776,5.326,1.71,8.338-0.548c20.791-15.593,41.823-30.866,62.597-46.481
			c3.411-2.564,6.039-2.665,9.882-1.129c70.622,28.227,141.32,56.263,211.943,84.487c3.861,1.543,5.965,1.13,8.635-2.174
			c26.916-33.305,54.015-66.462,81.067-99.657c8.822-10.825,17.653-21.643,26.309-32.255c0.862,0.146,1.23,0.116,1.496,0.266
			c9.857,5.573,20.274,10.374,29.4,16.962c9.978,7.203,18.79,8.233,28.16-0.103c3.202-2.848,6.012-1.795,9.3,0.317
			c33.772,21.695,67.63,43.255,101.485,64.821C1436.418,83.311,1438.253,84.064,1440,84.955z M1337.449,90.175
			c0.07-0.606,0.14-1.213,0.21-1.819c8.593-1.732,17.14-3.766,25.799-5.049c3.587-0.532,7.716-0.253,11.079,1.024
			c16.815,6.386,33.457,13.228,50.163,19.901c1.79,0.715,3.602,1.377,5.404,2.063c-3.477-4.036-7.48-7.148-11.496-10.244
			c-25.581-19.731-51.184-39.433-76.72-59.222c-2.746-2.128-5.062-2.48-8.094-0.512c-4.744,3.079-9.619,6.024-14.706,8.468
			c-1.616,0.776-4.697,0.55-6.066-0.533c-10.049-7.951-19.821-16.252-29.71-24.408c-3.236-2.669-6.559-5.231-9.843-7.842
			c-0.325,2.133,0.189,3.46,0.878,4.69c4.394,7.845,8.834,15.664,13.245,23.5c13.72,24.378,27.47,48.739,41.111,73.161
			c2.189,3.92,5.021,6.359,9.604,7.021c5.103,0.738,10.106,2.15,15.202,2.95c5.616,0.881,9.739,3.854,13.32,8.074
			c7.966,9.387,16.059,18.667,24.146,27.951c2.754,3.162,5.642,6.206,8.469,9.304c0.134-1.881-0.472-3.181-1.205-4.405
			c-11.898-19.861-23.887-39.667-35.657-59.603c-2.341-3.966-5.307-6.604-9.602-8.162
			C1347.731,94.576,1342.62,92.294,1337.449,90.175z M1001.465,108.414c-21.507-15.444-41.679-29.931-61.852-44.418
			c-0.349,0.29-0.698,0.581-1.047,0.871c3.522,7.82,6.896,15.712,10.659,23.414c1.101,2.254,2.989,4.435,5.062,5.85
			c11.789,8.044,24.894,14.268,34.174,25.708c3.559,4.387,7.609,8.376,11.455,12.528c12.105,13.065,24.214,26.127,36.343,39.17
			c1.046,1.124,2.252,2.099,3.383,3.144c0.362-0.251,0.724-0.502,1.086-0.753c-6.133-14.136-12.266-28.272-18.758-43.235
			c2.372,0.301,3.375,0.284,4.286,0.564c30.893,9.49,61.884,18.682,92.582,28.768c7.078,2.326,11.714,2.247,16.43-3.68
			c3.766-4.733,3.891-5.576-1.876-8.026c-1.84-0.782-3.712-1.49-5.567-2.237c-25.812-10.39-51.698-20.603-77.407-31.242
			c-14.157-5.858-28.061-12.338-41.984-18.744c-4.029-1.854-5.428-0.921-5.514,3.372
			C1002.873,101.873,1002.171,104.263,1001.465,108.414z M825.964,117.483c0.185-0.365,0.371-0.729,0.556-1.094
			c-7.164-5.027-14.23-10.204-21.516-15.048c-11.153-7.415-22.154-14.861-27.667-27.889c-2.576-6.088-7.517-9.95-13.063-13.309
			c-12.108-7.332-24.061-14.919-36.102-22.363c-2.866-1.772-5.825-3.394-9.872-5.74c0.827,10.496,7.866,19.386,0.636,29.098
			c-12.2-11.607-24.188-23.012-36.669-34.886c-0.202,1.509-0.386,1.898-0.267,2.137c10.507,21.192,21.025,42.379,31.583,63.545
			c1.31,2.626,3.129,2.583,5.206,0.701c2.343-2.122,4.818-4.097,7.16-6.22c2.033-1.843,3.814-1.938,5.327,0.528
			c2.693,4.391,5.659,8.653,7.935,13.254c4.643,9.383,7.604,19.891,13.61,28.243c10.668,14.836,23.077,28.421,34.798,42.497
			c0.842,1.011,2.005,1.756,3.018,2.625c0.458-0.308,0.915-0.617,1.373-0.925c-5.667-12.721-10.99-25.61-17.092-38.119
			c-6.696-13.725-16.253-26.073-19.949-41.237c-2.169-8.897-5.656-16.701-14.869-20.418c-0.163-0.066-0.163-0.537-0.365-1.29
			c8.136,3.144,16.103,5.971,23.822,9.362c2.233,0.981,4.095,3.351,5.533,5.485c3.162,4.691,5.681,9.832,9.012,14.388
			c1.383,1.891,4.196,3.926,6.313,3.878c7.792-0.175,14.69,2.451,21.669,5.264C812.654,112.598,819.333,114.982,825.964,117.483z
			 M199.285,133.826c0.427-0.333,0.853-0.666,1.28-0.998c-2.999-4.918-5.982-9.846-9-14.753
			c-13.087-21.281-26.151-42.577-39.339-63.796c-1.074-1.729-2.77-3.562-4.592-4.255c-11.053-4.204-22.199-8.172-33.376-12.04
			c-3.951-1.368-5.369-0.085-4.663,4.083c1.057,6.241,2.302,12.453,3.641,18.64c0.302,1.394,1.036,2.947,2.064,3.889
			c5.574,5.108,7.329,10.963,5.159,18.396c-1.336,4.576-0.029,9.077,3.484,13.325c1.883-2.486,3.406-4.498,5.54-7.316
			c22.175,32.344,45.17,46.638,34.282,22.486c0.33-0.293,0.659-0.587,0.989-0.88C176.266,118.346,187.776,126.086,199.285,133.826z
			 M478.826,110.731c0.321-0.352,0.641-0.704,0.962-1.057c12.609,4.482,26.429,6.957,32.954,21.247
			c1.153,2.525,2.948,4.948,4.986,6.836c3.806,3.526,8.007,6.624,12.043,9.9c0.376-0.346,0.752-0.692,1.128-1.038
			c-0.522-1.302-0.907-2.681-1.588-3.893c-5.793-10.311-11.49-20.681-17.583-30.813c-1.436-2.388-3.981-4.495-6.501-5.778
			c-12.079-6.149-25.389-10.115-34.273-21.547c-3.652-4.7-8.351-8.595-12.652-12.776c-1.169-1.136-2.622-1.978-3.945-2.955
			c-0.639,2.826-0.363,4.913,0.17,6.931c3.66,13.853,7.573,27.642,10.977,41.557c1.438,5.878,3.899,10.571,9.473,13.252
			c8.472,4.075,13.357,10.972,16.466,19.678c2.197,6.152,5.329,11.969,8.044,17.936c1.285-1.824,1.553-3.414,1.483-4.988
			c-0.261-5.817-1.157-11.658-0.825-17.434c0.373-6.501-1.761-11.507-5.964-16.255C488.82,123.48,483.923,117.017,478.826,110.731z
			 M626.188,168.208c0.199,0.503,0.397,1.006,0.596,1.509c4.732-1.727,9.635-3.106,14.123-5.327
			c2.281-1.128,4.591-3.451,5.549-5.784c4.237-10.323,8.184-20.778,11.828-31.326c1.704-4.933,4.327-8.736,8.41-12.01
			c4.092-3.282,9.432-6.754,10.87-11.223c2.671-8.298,2.901-17.381,4.148-26.138c-0.442-0.124-0.884-0.249-1.326-0.373
			c-1.523,2.531-3.385,4.921-4.511,7.618c-4.791,11.479-13.204,18.366-25.359,20.811c-3.919,0.788-5.855,3.348-6.492,7.251
			c-1.289,7.893-3.081,15.715-4.08,23.641c-1.344,10.663-4.367,20.458-11.913,28.464
			C627.261,166.138,626.795,167.239,626.188,168.208z M45.489,135.798c-12.441,7.208-9.236,17.852-8.768,27.865
			c1.041-1.184,1.802-2.485,2.011-3.87c1.026-6.804,5.052-11.008,10.74-14.655c12.036-7.716,23.751-15.95,35.381-24.273
			c2.202-1.576,4.766-4.53,4.802-6.884c0.096-6.354-1.082-12.728-1.755-19.094c-0.448-0.052-0.895-0.105-1.343-0.157
			c-1.34,3.459-2.857,6.861-3.989,10.387c-4.037,12.578-14.561,16.61-25.82,18.629c-7.019,1.259-11.882,5.132-17.777,9.178
			C41.015,133.826,42.314,134.399,45.489,135.798z M211.792,82.872c-4.489-3.016-7.781-5.531-11.351-7.554
			c-5.448-3.087-9.49-7.102-11.053-13.382c-0.333-1.339-1.34-3.183-2.448-3.549c-7.249-2.398-14.611-4.453-21.936-6.62
			c-0.274,0.598-0.548,1.195-0.822,1.793c20.414,19.346,40.828,38.692,61.242,58.038c0.249-0.233,0.498-0.466,0.747-0.7
			c-6.518-8.681-13.036-17.362-19.8-26.372C208.245,83.954,209.301,83.632,211.792,82.872z M709.673,182.901
			c0-0.289,0.003-0.577-0.016-0.865c-0.001-0.008-0.235-0.001-0.361-0.002c0.003,0.288,0.003,0.577,0.025,0.864
			C709.323,182.907,709.55,182.899,709.673,182.901z"/>
		<path fill="#2E2832" d="M1337.449,90.175c5.171,2.119,10.282,4.401,15.531,6.306c4.295,1.559,7.261,4.196,9.602,8.162
			c11.77,19.936,23.76,39.743,35.657,59.603c0.733,1.224,1.339,2.524,1.205,4.405c-2.827-3.098-5.716-6.142-8.469-9.304
			c-8.086-9.284-16.179-18.564-24.146-27.951c-3.582-4.22-7.704-7.193-13.32-8.074c-5.097-0.8-10.099-2.212-15.202-2.95
			c-4.583-0.663-7.415-3.102-9.604-7.021c-13.641-24.422-27.391-48.783-41.111-73.161c-4.41-7.836-8.85-15.655-13.245-23.5
			c-0.689-1.229-1.203-2.556-0.878-4.69c3.283,2.611,6.607,5.174,9.843,7.842c9.889,8.155,19.661,16.456,29.71,24.408
			c1.369,1.083,4.45,1.31,6.066,0.533c5.087-2.444,9.962-5.389,14.706-8.468c3.032-1.968,5.348-1.616,8.094,0.512
			c25.536,19.789,51.139,39.492,76.72,59.222c4.015,3.097,8.018,6.209,11.496,10.244c-1.802-0.686-3.614-1.348-5.404-2.063
			c-16.706-6.673-33.348-13.515-50.163-19.901c-3.363-1.277-7.492-1.556-11.079-1.024c-8.659,1.283-17.206,3.318-25.799,5.049
			C1337.589,88.962,1337.519,89.568,1337.449,90.175z"/>
		<path fill="#2E2832" d="M1001.465,108.414c0.706-4.151,1.408-6.542,1.455-8.945c0.086-4.293,1.485-5.226,5.514-3.372
			c13.923,6.405,27.827,12.885,41.984,18.744c25.709,10.639,51.594,20.852,77.407,31.242c1.855,0.747,3.727,1.455,5.567,2.237
			c5.767,2.45,5.642,3.293,1.876,8.026c-4.716,5.927-9.353,6.005-16.43,3.68c-30.698-10.086-61.689-19.278-92.582-28.768
			c-0.911-0.28-1.914-0.263-4.286-0.564c6.492,14.963,12.625,29.099,18.758,43.235c-0.362,0.251-0.724,0.502-1.086,0.753
			c-1.131-1.044-2.338-2.019-3.383-3.144c-12.129-13.043-24.238-26.105-36.343-39.17c-3.847-4.152-7.897-8.141-11.455-12.528
			c-9.28-11.44-22.385-17.664-34.174-25.708c-2.073-1.415-3.961-3.596-5.062-5.85c-3.763-7.702-7.137-15.594-10.659-23.414
			c0.349-0.29,0.698-0.581,1.047-0.871C959.786,78.483,979.959,92.97,1001.465,108.414z"/>
		<path fill="#2E2832" d="M825.964,117.483c-6.631-2.501-13.31-4.885-19.881-7.534c-6.978-2.814-13.877-5.439-21.669-5.264
			c-2.117,0.048-4.93-1.987-6.313-3.878c-3.331-4.556-5.849-9.696-9.012-14.388c-1.438-2.134-3.3-4.504-5.533-5.485
			c-7.719-3.391-15.686-6.218-23.822-9.362c0.203,0.753,0.202,1.225,0.365,1.29c9.214,3.717,12.701,11.521,14.869,20.418
			c3.696,15.163,13.253,27.511,19.949,41.237c6.102,12.509,11.425,25.398,17.092,38.119c-0.458,0.308-0.915,0.617-1.373,0.925
			c-1.014-0.869-2.176-1.613-3.018-2.625c-11.72-14.076-24.129-27.661-34.798-42.497c-6.006-8.353-8.966-18.86-13.61-28.243
			c-2.277-4.6-5.242-8.862-7.935-13.254c-1.513-2.466-3.294-2.371-5.327-0.528c-2.341,2.123-4.817,4.098-7.16,6.22
			c-2.077,1.882-3.896,1.925-5.206-0.701C703.024,70.767,692.507,49.581,682,28.389c-0.118-0.239,0.065-0.628,0.267-2.137
			c12.481,11.874,24.469,23.28,36.669,34.886c7.23-9.711,0.191-18.602-0.636-29.098c4.047,2.347,7.006,3.968,9.872,5.74
			c12.04,7.444,23.994,15.031,36.102,22.363c5.546,3.359,10.487,7.221,13.063,13.309c5.513,13.028,16.514,20.474,27.667,27.889
			c7.286,4.844,14.352,10.02,21.516,15.048C826.335,116.754,826.149,117.118,825.964,117.483z"/>
		<path fill="#2E2832" d="M199.285,133.826c-11.51-7.74-23.019-15.48-34.529-23.219c-0.33,0.293-0.659,0.587-0.989,0.88
			c10.888,24.153-12.107,9.859-34.282-22.486c-2.134,2.818-3.657,4.829-5.54,7.316c-3.513-4.248-4.82-8.749-3.484-13.325
			c2.17-7.433,0.415-13.288-5.159-18.396c-1.028-0.942-1.762-2.495-2.064-3.889c-1.34-6.187-2.585-12.399-3.641-18.64
			c-0.706-4.168,0.712-5.451,4.663-4.083c11.177,3.869,22.323,7.836,33.376,12.04c1.822,0.693,3.518,2.526,4.592,4.255
			c13.187,21.219,26.252,42.515,39.339,63.796c3.017,4.907,6.001,9.835,9,14.753C200.139,133.16,199.712,133.493,199.285,133.826z"
			/>
		<path fill="#2E2832" d="M478.826,110.731c5.096,6.287,9.994,12.75,15.353,18.804c4.203,4.748,6.337,9.754,5.964,16.255
			c-0.332,5.776,0.565,11.617,0.825,17.434c0.071,1.574-0.198,3.163-1.483,4.988c-2.715-5.967-5.847-11.784-8.044-17.936
			c-3.109-8.706-7.994-15.602-16.466-19.678c-5.574-2.681-8.035-7.374-9.473-13.252c-3.405-13.914-7.317-27.704-10.977-41.557
			c-0.533-2.018-0.809-4.105-0.17-6.931c1.323,0.977,2.777,1.819,3.945,2.955c4.301,4.181,9,8.076,12.652,12.776
			c8.884,11.432,22.194,15.398,34.273,21.547c2.52,1.283,5.065,3.39,6.501,5.778c6.094,10.131,11.79,20.502,17.583,30.813
			c0.681,1.212,1.066,2.591,1.588,3.893c-0.376,0.346-0.752,0.692-1.128,1.038c-4.036-3.276-8.237-6.375-12.043-9.9
			c-2.038-1.888-3.833-4.311-4.986-6.836c-6.525-14.29-20.345-16.765-32.954-21.247
			C479.467,110.026,479.147,110.379,478.826,110.731z"/>
		<path fill="#2E2832" d="M626.188,168.208c0.607-0.969,1.073-2.07,1.842-2.886c7.546-8.006,10.569-17.8,11.913-28.464
			c0.999-7.925,2.791-15.748,4.08-23.641c0.638-3.903,2.573-6.463,6.492-7.251c12.156-2.445,20.568-9.333,25.359-20.811
			c1.126-2.697,2.988-5.087,4.511-7.618c0.442,0.124,0.884,0.249,1.326,0.373c-1.247,8.756-1.477,17.84-4.148,26.138
			c-1.438,4.469-6.778,7.941-10.87,11.223c-4.083,3.274-6.705,7.077-8.41,12.01c-3.644,10.548-7.591,21.003-11.828,31.326
			c-0.957,2.333-3.268,4.656-5.549,5.784c-4.488,2.22-9.391,3.599-14.123,5.327C626.585,169.214,626.387,168.711,626.188,168.208z"
			/>
		<path fill="#2E2832" d="M45.489,135.798c-3.175-1.399-4.475-1.972-6.518-2.873c5.896-4.046,10.759-7.92,17.777-9.178
			c11.259-2.019,21.783-6.051,25.82-18.629c1.132-3.526,2.649-6.928,3.989-10.387c0.448,0.052,0.895,0.105,1.343,0.157
			c0.672,6.366,1.85,12.74,1.755,19.094c-0.035,2.354-2.6,5.309-4.802,6.884c-11.63,8.324-23.344,16.557-35.381,24.273
			c-5.689,3.647-9.715,7.851-10.74,14.655c-0.209,1.384-0.97,2.685-2.011,3.87C36.253,153.651,33.048,143.006,45.489,135.798z"/>
		<path fill="#2E2832" d="M211.792,82.872c-2.491,0.76-3.548,1.082-5.42,1.653c6.765,9.01,13.282,17.691,19.8,26.372
			c-0.249,0.233-0.498,0.466-0.747,0.7c-20.414-19.346-40.828-38.692-61.242-58.038c0.274-0.598,0.548-1.195,0.822-1.793
			c7.325,2.167,14.687,4.223,21.936,6.62c1.108,0.366,2.114,2.21,2.448,3.549c1.563,6.281,5.605,10.295,11.053,13.382
			C204.012,77.341,207.303,79.857,211.792,82.872z"/>
		<path fill="#A9A9A9" d="M709.672,182.9c-0.122-0.001-0.35,0.007-0.35-0.002c-0.022-0.287-0.022-0.575-0.025-0.864
			c0.125,0,0.36-0.007,0.361,0.002C709.676,182.323,709.673,182.612,709.672,182.9z"/>
	</g>
</g>
</svg>
