<svg version="1.1" id="Layer_1" xmlns="http://www.w3.org/2000/svg" xmlns:xlink="http://www.w3.org/1999/xlink" x="0px" y="0px"
	 width="12.559px" height="10.983px" viewBox="0 0 12.559 10.983" enable-background="new 0 0 12.559 10.983" xml:space="preserve">
<path fill="#FFFFFF" d="M6.51,1.342l4.152,4.15L6.51,9.641c-0.307,0.307-0.307,0.805,0,1.111c0.307,0.307,0.805,0.307,1.112,0
	l4.707-4.704c0.154-0.154,0.23-0.355,0.23-0.557s-0.076-0.404-0.23-0.557L7.622,0.23c-0.307-0.307-0.805-0.307-1.112,0
	S6.203,1.034,6.51,1.342z"/>
<path fill="#FFFFFF" d="M0.785,4.707h10.204v1.569H0.785C0.352,6.276,0,5.925,0,5.491l0,0C0,5.058,0.352,4.707,0.785,4.707z"/>
</svg>
