<?xml version="1.0" encoding="utf-8"?>
<!-- Generator: Adobe Illustrator 17.0.0, SVG Export Plug-In . SVG Version: 6.00 Build 0)  -->
<!DOCTYPE svg PUBLIC "-//W3C//DTD SVG 1.1//EN" "http://www.w3.org/Graphics/SVG/1.1/DTD/svg11.dtd">
<svg version="1.1" id="Layer_1" xmlns="http://www.w3.org/2000/svg" xmlns:xlink="http://www.w3.org/1999/xlink" x="0px" y="0px"
	 width="12.29px" height="10.924px" viewBox="0 0 12.29 10.924" enable-background="new 0 0 12.29 10.924" xml:space="preserve">
<path fill="#fff" d="M11.918,3.865L6.617,0.124C6.503,0.044,6.367,0,6.226,0H5.978c-0.14,0-0.276,0.044-0.391,0.124l-5.3,3.741
	C0.107,3.992,0,4.199,0,4.419v5.751c0,0.374,0.304,0.678,0.678,0.678h2.034h2.712h6.103c0.374,0,0.678-0.304,0.678-0.678V4.419
	C12.205,4.199,12.098,3.992,11.918,3.865z M10.849,9.153c0,0.188-0.152,0.339-0.339,0.339H5.424V5.763
	c0-0.187-0.152-0.339-0.339-0.339H3.051c-0.187,0-0.339,0.152-0.339,0.339v3.729H1.695c-0.188,0-0.339-0.152-0.339-0.339V4.947
	c0-0.11,0.054-0.214,0.144-0.277L6.103,1.42l4.603,3.249c0.089,0.064,0.143,0.167,0.143,0.277
	C10.849,4.947,10.849,9.153,10.849,9.153z"/>
<path fill="#fff" d="M9.153,5.424H7.119c-0.187,0-0.339,0.152-0.339,0.339v0.678c0,0.188,0.152,0.339,0.339,0.339h2.034
	c0.188,0,0.339-0.152,0.339-0.339V5.763C9.493,5.576,9.341,5.424,9.153,5.424z"/>
</svg>
