<?xml version="1.0" encoding="utf-8"?>
<!-- Generator: Adobe Illustrator 17.0.0, SVG Export Plug-In . SVG Version: 6.00 Build 0)  -->
<!DOCTYPE svg PUBLIC "-//W3C//DTD SVG 1.1//EN" "http://www.w3.org/Graphics/SVG/1.1/DTD/svg11.dtd">
<svg version="1.1" id="Layer_1" xmlns="http://www.w3.org/2000/svg" xmlns:xlink="http://www.w3.org/1999/xlink" x="0px" y="0px"
	 width="12.29px" height="10.924px" viewBox="0 0 12.29 10.924" enable-background="new 0 0 12.29 10.924" xml:space="preserve">
<g>
	<path fill-rule="evenodd" clip-rule="evenodd" fill="none" d="M12.001,3.892L6.663,0.125C6.548,0.044,6.411,0,6.269,0H6.02
		C5.879,0,5.742,0.044,5.626,0.125L0.289,3.892C0.108,4.02,0,4.228,0,4.45v5.791c0,0.377,0.306,0.683,0.683,0.683h2.048h2.731h6.145
		c0.377,0,0.683-0.306,0.683-0.683V4.45C12.29,4.228,12.182,4.02,12.001,3.892z M10.924,9.217c0,0.189-0.153,0.341-0.341,0.341
		H5.462V5.803c0-0.188-0.153-0.341-0.341-0.341H3.072c-0.188,0-0.341,0.153-0.341,0.341v3.755H1.707
		c-0.189,0-0.341-0.153-0.341-0.341V4.981c0-0.111,0.054-0.215,0.145-0.279L6.145,1.43l4.635,3.272
		c0.09,0.064,0.144,0.168,0.144,0.279V9.217z"/>
	<path fill-rule="evenodd" clip-rule="evenodd" fill="none" d="M9.217,5.462H7.169c-0.188,0-0.341,0.153-0.341,0.341v0.683
		c0,0.189,0.153,0.341,0.341,0.341h2.048c0.189,0,0.341-0.153,0.341-0.341V5.803C9.559,5.615,9.406,5.462,9.217,5.462z"/>
</g>
</svg>
