<?xml version="1.0" encoding="utf-8"?>
<!-- Generator: Adobe Illustrator 17.0.0, SVG Export Plug-In . SVG Version: 6.00 Build 0)  -->
<!DOCTYPE svg PUBLIC "-//W3C//DTD SVG 1.1//EN" "http://www.w3.org/Graphics/SVG/1.1/DTD/svg11.dtd">
<svg version="1.1" id="Layer_1" xmlns="http://www.w3.org/2000/svg" xmlns:xlink="http://www.w3.org/1999/xlink" x="0px" y="0px"
	 width="30px" height="30px" viewBox="0 0 30 30" enable-background="new 0 0 29.59 29.59" xml:space="preserve">
<path fill="#FFFFFF" d="M14.795,0C6.624,0,0,6.624,0,14.795S6.624,29.59,14.795,29.59S29.59,22.965,29.59,14.795
	C29.59,6.623,22.965,0,14.795,0z M22.548,21.988c0,0.309-0.251,0.56-0.56,0.56H7.601c-0.308,0-0.559-0.251-0.559-0.56V7.601
	c0-0.308,0.251-0.559,0.559-0.559h14.386c0.309,0,0.56,0.251,0.56,0.559V21.988z M11.694,14.795c0,1.713,1.389,3.101,3.101,3.101
	c1.713,0,3.101-1.389,3.101-3.101c0-1.713-1.389-3.101-3.101-3.101C13.082,11.694,11.694,13.082,11.694,14.795z M17.896,8.593h3.101
	v3.101h-3.101V8.593z M19.407,14.795c0,2.544-2.069,4.612-4.612,4.612c-2.543,0-4.613-2.068-4.613-4.612
	c0-0.33,0.039-0.463,0.104-0.775H8.593v6.978h12.405V14.02h-1.693C19.371,14.332,19.407,14.465,19.407,14.795z"/>
</svg>
