<?xml version="1.0" encoding="utf-8"?>
<!-- Generator: Adobe Illustrator 17.0.0, SVG Export Plug-In . SVG Version: 6.00 Build 0)  -->
<!DOCTYPE svg PUBLIC "-//W3C//DTD SVG 1.1//EN" "http://www.w3.org/Graphics/SVG/1.1/DTD/svg11.dtd">
<svg version="1.1" id="info" xmlns="http://www.w3.org/2000/svg" xmlns:xlink="http://www.w3.org/1999/xlink" x="0px" y="0px"
	 width="20px" height="20px" viewBox="0 0 20 20" enable-background="new 0 0 20 20" xml:space="preserve">
<path fill="#C1C1C1" d="M10,0C4.478,0,0,4.477,0,10s4.477,10,10,10s10-4.478,10-10S15.522,0,10,0z M12.081,15.498
	c-0.515,0.203-0.924,0.357-1.232,0.464c-0.306,0.107-0.663,0.16-1.068,0.16c-0.623,0-1.108-0.152-1.454-0.456
	c-0.345-0.304-0.517-0.689-0.517-1.157c0-0.182,0.013-0.368,0.038-0.558c0.026-0.19,0.068-0.403,0.124-0.643l0.644-2.276
	c0.057-0.218,0.106-0.426,0.145-0.619C8.8,10.218,8.819,10.04,8.819,9.877c0-0.29-0.06-0.493-0.179-0.607
	C8.519,9.156,8.291,9.1,7.952,9.1c-0.166,0-0.337,0.025-0.512,0.076C7.266,9.229,7.116,9.278,6.992,9.325l0.17-0.701
	c0.422-0.172,0.825-0.319,1.211-0.441c0.385-0.124,0.749-0.185,1.092-0.185c0.619,0,1.096,0.151,1.432,0.449
	C11.231,8.746,11.4,9.134,11.4,9.612c0,0.099-0.012,0.273-0.035,0.522c-0.023,0.25-0.066,0.477-0.129,0.687l-0.641,2.269
	c-0.052,0.182-0.099,0.39-0.141,0.623c-0.042,0.233-0.062,0.411-0.062,0.53c0,0.301,0.067,0.507,0.202,0.616
	c0.134,0.109,0.368,0.164,0.7,0.164c0.157,0,0.332-0.028,0.53-0.082c0.196-0.054,0.339-0.102,0.428-0.144L12.081,15.498z
	 M11.968,6.289c-0.299,0.278-0.659,0.417-1.079,0.417s-0.782-0.139-1.084-0.417c-0.3-0.278-0.451-0.615-0.451-1.01
	c0-0.394,0.152-0.732,0.451-1.012c0.301-0.281,0.664-0.421,1.084-0.421c0.421,0,0.781,0.14,1.079,0.421
	c0.299,0.28,0.449,0.619,0.449,1.012C12.417,5.674,12.267,6.011,11.968,6.289z"/>
</svg>
