<?xml version="1.0" encoding="utf-8"?>
<!-- Generator: Adobe Illustrator 17.0.0, SVG Export Plug-In . SVG Version: 6.00 Build 0)  -->
<!DOCTYPE svg PUBLIC "-//W3C//DTD SVG 1.1//EN" "http://www.w3.org/Graphics/SVG/1.1/DTD/svg11.dtd">
<svg version="1.1" id="Layer_1" xmlns="http://www.w3.org/2000/svg" xmlns:xlink="http://www.w3.org/1999/xlink" x="0px" y="0px"
	 width="562.224px" height="276.331px" viewBox="0 0 562.224 276.331" enable-background="new 0 0 562.224 276.331"
	 xml:space="preserve">
<path fill="none" stroke="#BDF271" stroke-width="10" d="M34.626,243.831c0,0,92-68,128-62s46,36,70,34s24-94,120-28"/>
<line fill="none" stroke="#BDF271" stroke-width="10" x1="370.626" y1="166.498" x2="439.626" y2="266.831"/>
<path fill="none" stroke="#01A2A6" stroke-width="13" d="M214.703,127.495c0,0,23.996-20.999,47.998-20.999
	c24.002,0,164.791,163.022,164.791,163.022H13.451c0,0,138.014-174.017,165.017-177.018c27.003-3.001,27.232,43.994,51.234,46.994"
	/>
<path fill="none" stroke="#01A2A6" stroke-width="13" d="M352.626,187.831c0,0,36-48,76-50s122,132,122,132h-128"/>
<path fill="none" stroke="#01A2A6" stroke-width="13" d="M421.235,55.997c1.272-3.769,1.973-7.801,1.973-11.999
	c0-20.709-16.788-37.498-37.498-37.498c-11.334,0-21.485,5.036-28.361,12.983c-2.439-0.64-4.997-0.984-7.637-0.984
	c-16.567,0-29.998,13.431-29.998,29.998c0,2.59,0.328,5.103,0.945,7.5H421.235z"/>
</svg>
