
<svg version="1.1" id="Layer_1" xmlns="http://www.w3.org/2000/svg" xmlns:xlink="http://www.w3.org/1999/xlink" x="0px" y="0px"
	 width="17.197px" height="17.296px" viewBox="0 0 17.197 17.296" enable-background="new 0 0 17.197 17.296" xml:space="preserve">
<path fill="#55676e" d="M6.449,2.162c2.371,0,4.299,1.94,4.299,4.324c0,0.898-0.276,1.762-0.797,2.499L9.528,9.583l-0.594,0.425
	c-0.733,0.524-1.592,0.801-2.485,0.801c-2.37,0-4.299-1.94-4.299-4.324S4.078,2.162,6.449,2.162 M6.449,0C2.887,0,0,2.904,0,6.486
	c0,3.582,2.887,6.486,6.449,6.486c1.392,0,2.677-0.448,3.731-1.202l5.179,5.209c0.21,0.211,0.486,0.317,0.761,0.317
	c0.275,0,0.551-0.106,0.761-0.317c0.42-0.423,0.42-1.108,0-1.531l-5.179-5.209c0.75-1.06,1.195-2.353,1.195-3.753
	C12.898,2.904,10.01,0,6.449,0L6.449,0z"/>
</svg>
