<?xml version="1.0" encoding="utf-8"?>
<!-- Generator: Adobe Illustrator 17.0.0, SVG Export Plug-In . SVG Version: 6.00 Build 0)  -->
<!DOCTYPE svg PUBLIC "-//W3C//DTD SVG 1.1//EN" "http://www.w3.org/Graphics/SVG/1.1/DTD/svg11.dtd">
<svg version="1.1" id="Layer_1" xmlns="http://www.w3.org/2000/svg" xmlns:xlink="http://www.w3.org/1999/xlink" x="0px" y="0px"
	 width="27.561px" height="27.561px" viewBox="0 0 27.561 27.561" enable-background="new 0 0 27.561 27.561" xml:space="preserve">
<path fill="#FFFFFF" d="M13.78,0C6.182,0,0,6.182,0,13.78c0,7.599,6.182,13.78,13.78,13.78c7.599,0,13.78-6.182,13.78-13.78
	C27.561,6.182,21.379,0,13.78,0z M19.928,10.627c0.006,0.136,0.009,0.274,0.009,0.412c0,4.191-3.19,9.024-9.025,9.024
	c-1.791,0-3.459-0.524-4.862-1.425c0.248,0.029,0.501,0.045,0.757,0.045c1.486,0,2.854-0.507,3.939-1.358
	c-1.388-0.026-2.559-0.942-2.963-2.203c0.193,0.038,0.392,0.057,0.596,0.057c0.289,0,0.57-0.039,0.836-0.111
	c-1.451-0.292-2.544-1.573-2.544-3.11c0-0.013,0-0.027,0-0.04c0.428,0.237,0.917,0.38,1.436,0.396
	c-0.85-0.568-1.411-1.539-1.411-2.64c0-0.582,0.156-1.127,0.429-1.595c1.564,1.92,3.902,3.182,6.537,3.315
	c-0.054-0.233-0.082-0.474-0.082-0.723c0-1.751,1.42-3.172,3.172-3.172c0.912,0,1.736,0.385,2.315,1.002
	c0.723-0.142,1.402-0.405,2.015-0.77c-0.238,0.741-0.74,1.362-1.395,1.755c0.642-0.076,1.254-0.246,1.822-0.499
	C21.086,9.622,20.547,10.181,19.928,10.627z"/>
</svg>
