<?xml version="1.0" encoding="utf-8"?>
<!-- Generator: Adobe Illustrator 17.0.0, SVG Export Plug-In . SVG Version: 6.00 Build 0)  -->
<!DOCTYPE svg PUBLIC "-//W3C//DTD SVG 1.1//EN" "http://www.w3.org/Graphics/SVG/1.1/DTD/svg11.dtd">
<svg version="1.1" id="Layer_1" xmlns="http://www.w3.org/2000/svg" xmlns:xlink="http://www.w3.org/1999/xlink" x="0px" y="0px"
	 width="12.25px" height="12.25px" viewBox="0 0 12.25 12.25" enable-background="new 0 0 12.25 12.25" xml:space="preserve">
<path fill="none" d="M9.734,5.094L9.734,5.094c0.139-0.397,0.219-0.822,0.219-1.266C9.953,1.714,8.239,0,6.125,0
	C4.011,0,2.297,1.714,2.297,3.828c0,0.444,0.08,0.869,0.219,1.266h0C1.024,5.853,0,7.398,0,9.186v2.297
	c0,0.423,0.343,0.767,0.767,0.767h10.717c0.423,0,0.767-0.343,0.767-0.767V9.186C12.25,7.398,11.226,5.853,9.734,5.094z
	 M6.125,1.531c1.266,0,2.297,1.03,2.297,2.297c0,1.267-1.03,2.297-2.297,2.297s-2.297-1.03-2.297-2.297
	C3.828,2.561,4.859,1.531,6.125,1.531z M10.719,10.719H1.531V9.186c0-1.228,0.729-2.287,1.775-2.774
	c0.7,0.763,1.702,1.244,2.819,1.244s2.119-0.481,2.819-1.244c1.046,0.487,1.775,1.546,1.775,2.774V10.719z"/>
</svg>
